<?xml version="1.0" encoding="UTF-8"?>
<svg width="18px" height="18px" viewBox="0 0 18 18" version="1.1" xmlns="http://www.w3.org/2000/svg" xmlns:xlink="http://www.w3.org/1999/xlink">
    <!-- Generator: Sketch 54.1 (76490) - https://sketchapp.com -->
    <title>checkbox</title>
    <desc>Created with Sketch.</desc>
    <g id="App" stroke="none" stroke-width="1" fill="none" fill-rule="evenodd">
        <g id="step2-4" transform="translate(-50.000000, -94.000000)">
            <g id="Group-6" transform="translate(30.000000, 37.000000)">
                <g id="Group-5" transform="translate(20.000000, 13.000000)">
                    <g id="Group-5-Copy" transform="translate(0.000000, 41.000000)">
                        <g id="checkbox" transform="translate(0.000000, 3.000000)">
                            <path d="M16,0 L2,0 C0.9,0 0,0.9 0,2 L0,16 C0,17.1 0.9,18 2,18 L16,18 C17.1,18 18,17.1 18,16 L18,2 C18,0.9 17.1,0 16,0 L16,0 Z" id="Shape" fill="#4A90E2"></path>
                            <polygon id="Path" fill="#FFFFFF" points="7 14 2 9.19230769 3.4 7.84615385 7 11.3076923 14.6 4 16 5.34615385"></polygon>
                        </g>
                    </g>
                </g>
            </g>
        </g>
    </g>
</svg>