<?xml version="1.0" encoding="UTF-8"?>
<svg width="19px" height="14px" viewBox="0 0 19 14" version="1.1" xmlns="http://www.w3.org/2000/svg" xmlns:xlink="http://www.w3.org/1999/xlink">
    <!-- Generator: Sketch 52.1 (67048) - http://www.bohemiancoding.com/sketch -->
    <title>sidelist</title>
    <desc>Created with Sketch.</desc>
    <g id="App" stroke="none" stroke-width="1" fill="none" fill-rule="evenodd">
        <g id="home" transform="translate(-15.000000, -13.000000)" fill="#FFFFFF">
            <path d="M15.9827726,18.8050415 L33.0172071,18.8050415 C33.5600189,18.8050415 34,19.2637608 34,19.8294676 C34,20.3953848 33.5600189,20.8538938 33.0172071,20.8538938 L15.9827726,20.8538938 C15.4400826,20.8538938 15,20.3953848 15,19.8294676 C15,19.2637608 15.4400826,18.8050415 15.9827726,18.8050415 Z M15.9827726,24.9515684 L25.1552088,24.9515684 C25.6979192,24.9515684 26.1379002,25.4100774 26.1379002,25.9755738 C26.1379002,26.541491 25.6979192,27 25.1552088,27 L15.9827726,27 C15.4400826,27 15,26.541491 15,25.9755738 C15,25.4100774 15.4400826,24.9515684 15.9827726,24.9515684 Z M15.9827726,13 L29.7413863,13 C30.2840966,13 30.7240777,13.459125 30.7240777,14.0246215 C30.7240777,14.5903433 30.2840966,15.0490476 29.7413863,15.0490476 L15.9827726,15.0490476 C15.4400826,15.0490476 15,14.5903433 15,14.0246215 C15,13.459125 15.4400826,13 15.9827726,13 Z" id="sidelist"></path>
        </g>
    </g>
</svg>